<svg width="32" height="32" viewBox="0 0 32 32" fill="none" xmlns="http://www.w3.org/2000/svg">
  <!-- Yellow petals (sunflower style) -->
  <ellipse cx="16" cy="6" rx="2.8" ry="4.5" fill="#FDB913"/>
  <ellipse cx="23.5" cy="8.5" rx="2.8" ry="4.5" fill="#FDB913" transform="rotate(45 23.5 8.5)"/>
  <ellipse cx="26" cy="16" rx="2.8" ry="4.5" fill="#FDB913" transform="rotate(90 26 16)"/>
  <ellipse cx="23.5" cy="23.5" rx="2.8" ry="4.5" fill="#FDB913" transform="rotate(135 23.5 23.5)"/>
  <ellipse cx="16" cy="26" rx="2.8" ry="4.5" fill="#FDB913" transform="rotate(180 16 26)"/>
  <ellipse cx="8.5" cy="23.5" rx="2.8" ry="4.5" fill="#FDB913" transform="rotate(225 8.5 23.5)"/>
  <ellipse cx="6" cy="16" rx="2.8" ry="4.5" fill="#FDB913" transform="rotate(270 6 16)"/>
  <ellipse cx="8.5" cy="8.5" rx="2.8" ry="4.5" fill="#FDB913" transform="rotate(315 8.5 8.5)"/>

  <!-- Brown center (sunflower center) -->
  <circle cx="16" cy="16" r="5.5" fill="#8B4513"/>
  <circle cx="16" cy="16" r="4.5" fill="#654321"/>

  <!-- Seeds pattern in center -->
  <circle cx="14.5" cy="14.5" r="0.8" fill="#8B4513" opacity="0.5"/>
  <circle cx="17.5" cy="14.5" r="0.8" fill="#8B4513" opacity="0.5"/>
  <circle cx="14.5" cy="17.5" r="0.8" fill="#8B4513" opacity="0.5"/>
  <circle cx="17.5" cy="17.5" r="0.8" fill="#8B4513" opacity="0.5"/>
  <circle cx="16" cy="16" r="0.8" fill="#8B4513" opacity="0.5"/>
</svg>
