<svg width="32" height="32" viewBox="0 0 32 32" fill="none" xmlns="http://www.w3.org/2000/svg">
  <!-- Center circle -->
  <circle cx="16" cy="16" r="3" fill="#FFC107"/>

  <!-- Petals -->
  <!-- Top petal -->
  <ellipse cx="16" cy="8" rx="3.5" ry="5" fill="#00A63E"/>

  <!-- Top-right petal -->
  <ellipse cx="21.5" cy="10.5" rx="3.5" ry="5" fill="#00A63E" transform="rotate(45 21.5 10.5)"/>

  <!-- Right petal -->
  <ellipse cx="24" cy="16" rx="3.5" ry="5" fill="#00A63E" transform="rotate(90 24 16)"/>

  <!-- Bottom-right petal -->
  <ellipse cx="21.5" cy="21.5" rx="3.5" ry="5" fill="#00A63E" transform="rotate(135 21.5 21.5)"/>

  <!-- Bottom petal -->
  <ellipse cx="16" cy="24" rx="3.5" ry="5" fill="#00A63E" transform="rotate(180 16 24)"/>

  <!-- Bottom-left petal -->
  <ellipse cx="10.5" cy="21.5" rx="3.5" ry="5" fill="#00A63E" transform="rotate(225 10.5 21.5)"/>

  <!-- Left petal -->
  <ellipse cx="8" cy="16" rx="3.5" ry="5" fill="#00A63E" transform="rotate(270 8 16)"/>

  <!-- Top-left petal -->
  <ellipse cx="10.5" cy="10.5" rx="3.5" ry="5" fill="#00A63E" transform="rotate(315 10.5 10.5)"/>

  <!-- Center circle overlay for depth -->
  <circle cx="16" cy="16" r="3" fill="#FFC107"/>
  <circle cx="16" cy="16" r="2" fill="#FFD54F"/>
</svg>
